<svg width="14" height="14" viewBox="0 0 14 14" fill="none" xmlns="http://www.w3.org/2000/svg">
<path fill-rule="evenodd" clip-rule="evenodd" d="M0.919868 7.87965L5.94088 13.2965L3.96622 7.70205C3.94062 7.62952 3.91998 7.55558 3.90436 7.48065H0.666016C0.724822 7.62612 0.810368 7.76152 0.919868 7.87965ZM0.666016 6.52065C0.724822 6.37518 0.810368 6.23979 0.919868 6.12165L5.94088 0.704785L3.96622 6.29925C3.94062 6.37178 3.91998 6.44572 3.90436 6.52065H0.666016ZM4.9333 6.52065L6.99935 0.667318L9.06542 6.52065H4.9333ZM10.0943 6.52065C10.0787 6.44572 10.0581 6.37178 10.0325 6.29925L8.05782 0.704785L13.0788 6.12165C13.1883 6.23979 13.2739 6.37518 13.3327 6.52065H10.0943ZM13.3327 7.48065H10.0943C10.0787 7.55558 10.0581 7.62952 10.0325 7.70205L8.05782 13.2965L13.0788 7.87965C13.1883 7.76152 13.2739 7.62612 13.3327 7.48065ZM9.06542 7.48065H4.9333L6.99935 13.334L9.06542 7.48065Z" fill="black"/>
</svg>
