<svg width="28" height="28" viewBox="0 0 28 28" fill="none" xmlns="http://www.w3.org/2000/svg">
<path d="M12.5379 1.02271C13.035 -0.340903 14.965 -0.340903 15.4621 1.02271L17.7931 7.42013C18.2659 8.71449 19.2855 9.73415 20.5799 10.2069L26.9773 12.5379C28.3409 13.035 28.3409 14.965 26.9773 15.4621L20.5799 17.7931C19.2855 18.2659 18.2659 19.2855 17.7931 20.5799L15.4621 26.9773C14.965 28.3409 13.035 28.3409 12.5379 26.9773L10.2069 20.5799C9.73415 19.2855 8.71446 18.2659 7.42013 17.7931L1.02271 15.4621C-0.340903 14.965 -0.340903 13.035 1.02271 12.5379L7.42013 10.2069C8.71449 9.73415 9.73415 8.71446 10.2069 7.42013L12.5379 1.02271Z" fill="white"/>
</svg>
